<?xml version="1.0" ?><svg style="enable-background:new 0 0 256 256;" version="1.1" viewBox="0 0 512 512" xml:space="preserve" xmlns="http://www.w3.org/2000/svg" xmlns:xlink="http://www.w3.org/1999/xlink"><style type="text/css">
	.st0{fill:#1E1E1E;}
	.st1{fill:#464646;stroke:#21759B;stroke-width:2;stroke-miterlimit:10;}
	.st2{fill:#FFFFFF;}
</style><g id="Edges"/><g id="Background_Bottom"><g><path class="st0" d="M492.3,443.1c0,34.2-27.7,61.9-61.9,61.9H80.7c-34.2,0-61.9-27.7-61.9-61.9V93.4c0-34.2,27.7-61.9,61.9-61.9    h349.7c34.2,0,61.9,27.7,61.9,61.9V443.1z"/></g></g><g id="Background"><path class="st1" d="M492.3,418.4c0,34.2-27.7,61.9-61.9,61.9H80.7c-34.2,0-61.9-27.7-61.9-61.9V68.6c0-34.2,27.7-61.9,61.9-61.9   h349.7c34.2,0,61.9,27.7,61.9,61.9V418.4z"/></g><g id="Symbol"><path class="st2" d="M218.7,137.6c5.5,1.3,11,2.6,16.5,4c20.2,5.2,40.4,10.6,59.9,18.3c7.7,3.1,15.3,7,22.3,11.4   c12.5,7.9,20.3,19.5,23.3,34.1c2.9,14.1,3.6,28.2,0.4,42.3c-1.4,5.9-3.7,11.4-7.6,16.2c-8.5,10.5-19.7,12.8-32.2,10.2   c-3.9-0.8-7.6-2.5-11.5-3.7c-1.8-0.6-2.3-1.7-2.2-3.5c0.1-23.3,0.1-46.5,0-69.8c0-3.4-0.2-6.9-0.9-10.3c-1-5-3.8-8.7-9-10.1   c-3.4-0.9-6.1,0-7.7,3.1c-0.9,1.7-1.5,3.6-1.9,5.6c-0.4,2-0.4,4.1-0.4,6.1c0,59.5,0,119.1,0,178.6c0,1.1,0,2.1,0,3.5   c-1-0.3-1.8-0.4-2.5-0.6c-15-4.8-30.1-9.6-45.1-14.3c-1.7-0.5-2.3-1.3-2.3-3.1c0.1-71.8,0-143.6,0.1-215.4c0-0.9,0.2-1.8,0.4-2.6   C218.3,137.6,218.5,137.6,218.7,137.6z"/><path class="st2" d="M409.7,312.7c-1.7,5.4-5.5,9.1-10.2,11.8c-4.4,2.5-8.9,5-13.7,6.8c-35.3,12.8-70.7,25.4-106,38.1   c-0.7,0.2-1.4,0.4-2.4,0.7c-0.1-1.1-0.1-1.9-0.1-2.8c0-7.7,0.1-15.5-0.1-23.2c0-2.1,0.7-3,2.6-3.7c25.6-9,51.1-18.1,76.6-27.3   c2.2-0.8,4.5-1.8,6.4-3.1c3.5-2.3,3.2-5.2-0.7-6.7c-2.6-1-5.5-1.7-8.3-1.9c-8.2-0.7-16.2,0.3-24,3c-16.7,5.9-33.3,11.7-50,17.6   c-0.7,0.2-1.4,0.4-2.3,0.7c-0.1-0.8-0.2-1.4-0.2-2c0-8.6,0-17.1,0-25.7c0-1.5,0.4-2.3,2-2.8c33.8-10.9,67.7-12.5,101.9-1.8   c5.9,1.8,11.6,4.1,17.2,6.7c5.4,2.5,9.7,6.4,11.5,12.5C409.7,310.8,409.7,311.8,409.7,312.7z"/><path class="st2" d="M103.2,318.2c1.3-5.1,4.6-8.5,9.1-10.8c7.3-3.6,14.5-7.5,22.1-10.3c23.6-8.7,47.3-16.9,71-25.3   c0.8-0.3,1.5-0.5,2.6-0.8c0.1,0.9,0.2,1.6,0.2,2.3c0,8.1,0,16.1,0.1,24.2c0,1.8-0.6,2.6-2.2,3.1c-16,5.6-31.9,11.3-47.8,17.1   c-2.5,0.9-5,2.1-7.3,3.6c-3,2-2.7,4.7,0.5,6.3c5.2,2.5,10.8,2.6,16.4,2.3c6.2-0.3,12.2-1.6,18-3.8c7.2-2.7,14.5-5.3,22-8   c0.1,0.9,0.2,1.6,0.2,2.3c0,7.1,0,14.1,0,21.2c0,1.7-0.4,2.4-2.2,2.7c-28.8,5.1-57,2.3-84.5-7.4c-1.6-0.6-3.2-1.2-4.8-2   c-6.1-3-11.4-6.9-13.5-13.8C103.2,320.1,103.2,319.2,103.2,318.2z"/></g></svg>