<?xml version="1.0" ?><svg style="enable-background:new 0 0 512 512;" version="1.1" viewBox="0 0 512 512" xml:space="preserve" xmlns="http://www.w3.org/2000/svg" xmlns:xlink="http://www.w3.org/1999/xlink"><style type="text/css">
	.st0{fill:#1E1E1E;}
	.st1{fill:#464646;stroke:#21759B;stroke-width:2;stroke-miterlimit:10;}
	.st2{fill:#FFFFFF;}
</style><g id="Edges"/><g id="Background_Bottom"><g><path class="st0" d="M492.3,443.1c0,34.2-27.7,61.9-61.9,61.9H80.7c-34.2,0-61.9-27.7-61.9-61.9V93.4c0-34.2,27.7-61.9,61.9-61.9    h349.7c34.2,0,61.9,27.7,61.9,61.9V443.1z"/></g></g><g id="Background"><path class="st1" d="M492.3,418.4c0,34.2-27.7,61.9-61.9,61.9H80.7c-34.2,0-61.9-27.7-61.9-61.9V68.6c0-34.2,27.7-61.9,61.9-61.9   h349.7c34.2,0,61.9,27.7,61.9,61.9V418.4z"/></g><g id="Symbol"><path class="st2" d="M255.5,401.9c-36-0.4-67.9-12.1-95.3-35.5c-4.8-4.1-5.6-9.7-4.8-15.6c1.3-10.2,5.9-19.2,10.9-27.9   c11-18.8,24.7-35.6,39.3-51.6c14.8-16.3,30.6-31.5,47.9-45.2c1.6-1.3,2.6-1.4,4.3,0c22.7,18,42.9,38.5,61.4,60.7   c10.1,12,19.4,24.6,27.1,38.3c4.2,7.5,7.9,15.2,9.4,23.8c0.8,4.4,0.9,8.8-1.1,13c-0.8,1.7-1.9,3.2-3.4,4.4   c-20.7,17.7-44.3,28.9-71.2,33.5C271.8,401.2,263.7,401.9,255.5,401.9z"/><path class="st2" d="M401.8,260.3c-0.2,27.6-9.8,56.7-29,82.7c-0.4,0.5-0.7,1.5-1.5,1.1c-0.8-0.4,0-1.1,0.1-1.6   c1.7-6.7,1.3-13.5,0-20.2c-3.4-18.2-10.9-34.9-19.4-51.1c-15-28.7-32.8-55.7-53.3-80.8c-0.7-0.9-1.2-1.5-0.2-2.6   c12.3-12.1,24.9-23.8,40-32.5c4.6-2.6,9.4-4.9,14.9-5.1c2.6-0.1,4.6,0.8,6.4,2.7c16.4,16.9,28.3,36.5,35.4,58.9   C399.3,225.2,401.8,240.8,401.8,260.3z"/><path class="st2" d="M140,344.3c-1.2-0.1-1.4-0.9-1.9-1.5c-13.9-18.9-23.2-39.8-26.7-63c-7.3-47.6,5.7-89,37.8-124.7   c4.3-4.8,8.7-5.6,14.4-3.7c7,2.3,13.1,6.2,19,10.4c10.7,7.7,20.3,16.5,29.6,25.7c1.1,1.1,1.2,1.8,0.2,3   c-21.8,26.8-40.6,55.6-56.1,86.4c-6.6,13.1-12.2,26.6-15.7,40.9C138.6,325.9,138.4,331.7,140,344.3z"/><path class="st2" d="M181.3,129.7c21.3-12.5,43.9-19.2,68.2-20.1c28.6-1.2,55.2,5.5,79.9,19.8c-0.1,0.8-0.5,0.8-0.9,0.8   c-9.7-2.1-19.1,0.1-28.3,2.9c-15.2,4.6-29.1,11.8-42.7,19.8c-1.4,0.8-2.4,0.9-3.8,0c-12.9-7.7-26.3-14.6-40.7-19.2   c-9-2.9-18.1-5.2-27.8-4C184.2,129.8,183.1,130.6,181.3,129.7z"/></g></svg>